<svg width="25" height="24" viewBox="0 0 25 24" fill="none" xmlns="http://www.w3.org/2000/svg">
<path d="M12.3687 12C13.5621 12 14.7067 11.5259 15.5506 10.682C16.3945 9.83807 16.8687 8.69347 16.8687 7.5C16.8687 6.30653 16.3945 5.16193 15.5506 4.31802C14.7067 3.47411 13.5621 3 12.3687 3C11.1752 3 10.0306 3.47411 9.18667 4.31802C8.34276 5.16193 7.86865 6.30653 7.86865 7.5C7.86865 8.69347 8.34276 9.83807 9.18667 10.682C10.0306 11.5259 11.1752 12 12.3687 12ZM15.3687 7.5C15.3687 8.29565 15.0526 9.05871 14.49 9.62132C13.9274 10.1839 13.1643 10.5 12.3687 10.5C11.573 10.5 10.8099 10.1839 10.2473 9.62132C9.68472 9.05871 9.36865 8.29565 9.36865 7.5C9.36865 6.70435 9.68472 5.94129 10.2473 5.37868C10.8099 4.81607 11.573 4.5 12.3687 4.5C13.1643 4.5 13.9274 4.81607 14.49 5.37868C15.0526 5.94129 15.3687 6.70435 15.3687 7.5ZM21.3687 19.5C21.3687 21 19.8687 21 19.8687 21H4.86865C4.86865 21 3.36865 21 3.36865 19.5C3.36865 18 4.86865 13.5 12.3687 13.5C19.8687 13.5 21.3687 18 21.3687 19.5ZM19.8687 19.494C19.8672 19.125 19.6377 18.015 18.6207 16.998C17.6427 16.02 15.8022 15 12.3687 15C8.93365 15 7.09465 16.02 6.11665 16.998C5.09965 18.015 4.87165 19.125 4.86865 19.494H19.8687Z" fill="#C2C2C2"/>
</svg>
