<svg width="25" height="24" viewBox="0 0 25 24" fill="none" xmlns="http://www.w3.org/2000/svg">
<path d="M12.3691 12C13.5626 12 14.7072 11.5259 15.5511 10.682C16.395 9.83807 16.8691 8.69347 16.8691 7.5C16.8691 6.30653 16.395 5.16193 15.5511 4.31802C14.7072 3.47411 13.5626 3 12.3691 3C11.1757 3 10.0311 3.47411 9.18716 4.31802C8.34325 5.16193 7.86914 6.30653 7.86914 7.5C7.86914 8.69347 8.34325 9.83807 9.18716 10.682C10.0311 11.5259 11.1757 12 12.3691 12ZM15.3691 7.5C15.3691 8.29565 15.0531 9.05871 14.4905 9.62132C13.9279 10.1839 13.1648 10.5 12.3691 10.5C11.5735 10.5 10.8104 10.1839 10.2478 9.62132C9.68521 9.05871 9.36914 8.29565 9.36914 7.5C9.36914 6.70435 9.68521 5.94129 10.2478 5.37868C10.8104 4.81607 11.5735 4.5 12.3691 4.5C13.1648 4.5 13.9279 4.81607 14.4905 5.37868C15.0531 5.94129 15.3691 6.70435 15.3691 7.5ZM21.3691 19.5C21.3691 21 19.8691 21 19.8691 21H4.86914C4.86914 21 3.36914 21 3.36914 19.5C3.36914 18 4.86914 13.5 12.3691 13.5C19.8691 13.5 21.3691 18 21.3691 19.5ZM19.8691 19.494C19.8676 19.125 19.6381 18.015 18.6211 16.998C17.6431 16.02 15.8026 15 12.3691 15C8.93414 15 7.09514 16.02 6.11714 16.998C5.10014 18.015 4.87214 19.125 4.86914 19.494H19.8691Z" fill="#1F1F54"/>
</svg>
