<svg width="32" height="32" viewBox="0 0 32 32" fill="none" xmlns="http://www.w3.org/2000/svg">
<path d="M7.14328 6.85742C6.46129 6.85742 5.80724 7.12834 5.325 7.61058C4.84276 8.09281 4.57185 8.74687 4.57185 9.42885V19.7146C4.57185 20.3965 4.84276 21.0506 5.325 21.5328C5.80724 22.0151 6.46129 22.286 7.14328 22.286H24.8576C25.5395 22.286 26.1936 22.0151 26.6758 21.5328C27.1581 21.0506 27.429 20.3965 27.429 19.7146V9.42885C27.429 8.74687 27.1581 8.09281 26.6758 7.61058C26.1936 7.12834 25.5395 6.85742 24.8576 6.85742H7.14328ZM6.28613 9.42885C6.28613 9.20152 6.37644 8.9835 6.53718 8.82276C6.69793 8.66201 6.91595 8.57171 7.14328 8.57171H24.8576C25.0849 8.57171 25.3029 8.66201 25.4637 8.82276C25.6244 8.9835 25.7147 9.20152 25.7147 9.42885V19.7146C25.7147 19.9419 25.6244 20.1599 25.4637 20.3207C25.3029 20.4814 25.0849 20.5717 24.8576 20.5717H7.14328C6.91595 20.5717 6.69793 20.4814 6.53718 20.3207C6.37644 20.1599 6.28613 19.9419 6.28613 19.7146V9.42885ZM3.14328 23.4289C2.91595 23.4289 2.69793 23.5192 2.53718 23.6799C2.37644 23.8406 2.28613 24.0587 2.28613 24.286C2.28613 24.5133 2.37644 24.7313 2.53718 24.8921C2.69793 25.0528 2.91595 25.1431 3.14328 25.1431H28.8576C29.0849 25.1431 29.3029 25.0528 29.4637 24.8921C29.6244 24.7313 29.7147 24.5133 29.7147 24.286C29.7147 24.0587 29.6244 23.8406 29.4637 23.6799C29.3029 23.5192 29.0849 23.4289 28.8576 23.4289H3.14328Z" fill="#1F1F54"/>
</svg>
